<?xml version="1.0" encoding="utf-8"?><svg xml:space="preserve" viewBox="0 0 100 100" y="0" x="0" xmlns="http://www.w3.org/2000/svg" id="圖層_1" version="1.1" width="200px" height="200px" xmlns:xlink="http://www.w3.org/1999/xlink" style="width:100%;height:100%;background-size:initial;background-repeat-y:initial;background-repeat-x:initial;background-position-y:initial;background-position-x:initial;background-origin:initial;background-image:initial;background-color:rgb(255, 255, 255);background-clip:initial;background-attachment:initial;animation-play-state:paused" ><g class="ldl-scale" style="transform-origin:50% 50%;transform:rotate(0deg) scale(0.8, 0.8);animation-play-state:paused" ><path stroke-miterlimit="10" stroke-width="3" stroke="#333" fill="#f8b26a" d="M70.9 34.2H38.1V24c0-1.8-1.5-3.3-3.3-3.3H13.3c-1.8 0-3.3 1.5-3.3 3.3v52c0 1.8 1.5 3.3 3.3 3.3h57.6c1.8 0 3.3-1.5 3.3-3.3V37.5c0-1.8-1.5-3.3-3.3-3.3z" style="stroke:rgb(51, 51, 51);fill:rgb(248, 178, 106);animation-play-state:paused" ></path>
<path stroke-miterlimit="10" stroke-width="3" stroke="#333" fill="#f5e6c8" d="M70.9 79.3H13.3c-1.8 0-2.7-1.2-2.1-2.7l15-33.1c.4-.9 1.4-1.5 2.5-1.5h59c1.8 0 2.7 1.2 2.1 2.7L75.4 76.6c-.7 1.5-2.7 2.7-4.5 2.7z" style="stroke:rgb(51, 51, 51);fill:rgb(245, 230, 200);animation-play-state:paused" ></path>
<metadata xmlns:d="https://loading.io/stock/" style="animation-play-state:paused" ><d:name style="animation-play-state:paused" >folder</d:name>
<d:tags style="animation-play-state:paused" >collection,set,document,open,directory,group,folder,web application</d:tags>
<d:license style="animation-play-state:paused" >pro</d:license>
<d:slug style="animation-play-state:paused" >36nf5m</d:slug></metadata></g><!-- generated by https://loading.io/ --></svg>