<?xml version="1.0" encoding="utf-8"?><svg xml:space="preserve" viewBox="0 0 100 100" y="0" x="0" xmlns="http://www.w3.org/2000/svg" id="圖層_1" version="1.1" width="200px" height="200px" xmlns:xlink="http://www.w3.org/1999/xlink" style="width:100%;height:100%;background-size:initial;background-repeat-y:initial;background-repeat-x:initial;background-position-y:initial;background-position-x:initial;background-origin:initial;background-image:initial;background-clip:initial;background-attachment:initial;animation-play-state:paused" ><g class="ldl-scale" style="transform-origin:50% 50%;transform:rotate(0deg) scale(0.8, 0.8);animation-play-state:paused" ><path fill="#f47e60" d="M75.9 42.5v41.1c0 .2 0 .4-.1.5-.2.5-.7.8-1.2.8H63.1V59.3H50v4.3h8.8v21.1c0 2.4 2 4.4 4.4 4.4h11.4c3.1 0 5.6-2.5 5.6-5.6V46.8l-4.3-4.3z" style="fill:rgb(244, 126, 96);animation-play-state:paused" ></path>
<path fill="none" d="M36.9 84.9s0-.1 0 0c0-.1 0 0 0 0z" style="animation-play-state:paused" ></path>
<path d="M40.1 34.1l-2.2 2.2-6.9 6.9 6.9-6.9z" fill="none" style="animation-play-state:paused" ></path>
<path fill="#f8b26a" d="M41.2 59.3h-4.3V84.7s0 .1-.1.1H25.5c-.5 0-1-.3-1.2-.8-.1-.2-.1-.3-.1-.5V50.1l-4.3 4.3v29.2c0 3.1 2.5 5.6 5.6 5.6h11.4c2.4 0 4.4-2 4.4-4.4V63.6H50v-4.3h-8.8z" style="fill:rgb(248, 178, 106);animation-play-state:paused" ></path>
<path fill="#c33737" d="M24.1 42.5v7.6l6.9-6.9 6.9-6.9 2.2-2.2 2.2-2.2 7.8-7.8V10.8c-1.3 0-2.6.5-3.7 1.5L26.7 32l-6.9 6.9L9.1 49.6c-2.1 2.1-2.1 5.6 0 7.7l.1.1c2.1 2.1 5.6 2.1 7.7 0l3-3v-7.6l4.2-4.3z" style="fill:rgb(195, 55, 55);animation-play-state:paused" ></path>
<path d="M24.1 50.1v-7.6l-4.3 4.3v7.6l4.3-4.3z" fill="#c33737" style="fill:rgb(195, 55, 55);animation-play-state:paused" ></path>
<path fill="#f5e6c8" d="M50 59.3V24.2L42.2 32 40 34.2l-2.2 2.2-6.8 6.8-6.9 6.9v33.5c0 .2 0 .4.1.5.2.5.7.8 1.2.8h11.4s.1 0 .1-.1V59.3H50z" style="fill:rgb(245, 230, 200);animation-play-state:paused" ></path>
<path d="M24.1 50.1l6.9-6.9z" fill="#f5e6c8" style="fill:rgb(245, 230, 200);animation-play-state:paused" ></path>
<path d="M50 24.2L42.2 32l-2.1 2.1 2.1-2.1z" fill="#f5e6c8" style="fill:rgb(245, 230, 200);animation-play-state:paused" ></path>
<path d="M69 43.2l-6.9-6.9-2.2-2.2 2.2 2.2z" fill="#e0e0e0" style="fill:rgb(224, 224, 224);animation-play-state:paused" ></path>
<path fill="#e0e0e0" d="M63.1 84.8z" style="fill:rgb(224, 224, 224);animation-play-state:paused" ></path>
<path fill="#983733" d="M90.9 49.6L80.2 38.9 73.3 32 53.7 12.4c-1-1-2.3-1.5-3.7-1.5v13.4l7.8 7.8 2.2 2.2 2.2 2.2 6.9 6.9 6.9 6.9 4.3 4.3 3 3c2.1 2.1 5.6 2.1 7.7 0l.1-.1c1.9-2.3 1.9-5.8-.2-7.9z" style="fill:rgb(152, 55, 51);animation-play-state:paused" ></path>
<path fill="#f5e169" d="M62.1 36.3l-2.2-2.2-2.1-2.1-7.8-7.8v35.1h13.1V84.7h11.4c.5 0 1-.3 1.2-.8.1-.2.1-.3.1-.5V50.1L69 43.2l-6.9-6.9z" style="fill:rgb(245, 225, 105);animation-play-state:paused" ></path>
<path d="M57.8 32l2.1 2.1-2.1-2.1-7.8-7.8z" fill="#e0e0e0" style="fill:rgb(224, 224, 224);animation-play-state:paused" ></path>
<path d="M69 43.2l6.9 6.9z" fill="#e0e0e0" style="fill:rgb(224, 224, 224);animation-play-state:paused" ></path>
<metadata xmlns:d="https://loading.io/stock/" style="animation-play-state:paused" ><d:name style="animation-play-state:paused" >home</d:name>


<d:tags style="animation-play-state:paused" >house,building,shelter,landing,home,web application</d:tags>


<d:license style="animation-play-state:paused" >by</d:license>


<d:slug style="animation-play-state:paused" >62itd9</d:slug></metadata></g><!-- generated by https://loading.io/ --></svg>
