<?xml version="1.0" encoding="utf-8"?><svg viewBox="0 0 100 100" xmlns="http://www.w3.org/2000/svg" width="200px" height="200px" xmlns:xlink="http://www.w3.org/1999/xlink" style="width:100%;height:100%;background-size:initial;background-repeat-y:initial;background-repeat-x:initial;background-position-y:initial;background-position-x:initial;background-origin:initial;background-image:initial;background-color:rgb(255, 255, 255);background-clip:initial;background-attachment:initial;animation-play-state:paused" ><g class="ldl-scale" style="transform-origin:50% 50%;transform:rotate(0deg) scale(0.8, 0.8);animation-play-state:paused" ><g style="animation-play-state:paused" ><g style="animation-play-state:paused" ><path fill="#849b87" d="M30.002 84.637a41.598 41.598 0 0 1-9.803-7.715c-2.867-3.05-5.207-6.591-7.002-10.387-3.64-7.604-4.584-16.396-3.067-24.723 1.551-8.354 5.902-16.137 12.082-22.041 6.21-5.902 14.343-9.727 22.893-10.917a1.432 1.432 0 1 1 .395 2.837l-.033.004-.027.003c-7.98.883-15.725 4.227-21.773 9.653-6.013 5.427-10.407 12.734-12.133 20.747-1.692 7.987-1.044 16.577 2.316 24.142 1.655 3.777 3.861 7.338 6.615 10.441a41.367 41.367 0 0 0 9.537 7.956z" style="fill:rgb(132, 155, 135);animation-play-state:paused" ></path>
<g style="animation-play-state:paused" ><path d="M44.157 4.939l.783 10.905L50 10z" fill="#849b87" style="fill:rgb(132, 155, 135);animation-play-state:paused" ></path></g></g></g>
<g style="animation-play-state:paused" ><g style="animation-play-state:paused" ><path fill="#849b87" d="M69.998 15.363a41.598 41.598 0 0 1 9.803 7.715c2.867 3.05 5.207 6.591 7.002 10.387 3.64 7.604 4.584 16.396 3.067 24.723-1.551 8.354-5.902 16.137-12.082 22.041-6.21 5.902-14.343 9.727-22.893 10.917a1.432 1.432 0 1 1-.395-2.837l.033-.004.027-.003c7.98-.883 15.725-4.227 21.773-9.653 6.013-5.427 10.407-12.734 12.133-20.746 1.691-7.986 1.043-16.577-2.317-24.142-1.655-3.777-3.861-7.338-6.615-10.441a41.32 41.32 0 0 0-9.536-7.957z" style="fill:rgb(132, 155, 135);animation-play-state:paused" ></path>
<g style="animation-play-state:paused" ><path d="M55.843 95.061l-.783-10.905L50 90z" fill="#849b87" style="fill:rgb(132, 155, 135);animation-play-state:paused" ></path></g></g></g>
<g style="animation-play-state:paused" ><circle stroke-miterlimit="10" stroke-linejoin="round" stroke-linecap="round" stroke-width="3" stroke="#323232" fill="#a0c8d7" r="27.5" cy="50" cx="50" style="stroke:rgb(50, 50, 50);fill:rgb(160, 200, 215);animation-play-state:paused" ></circle>
<ellipse stroke-miterlimit="10" stroke-linejoin="round" stroke-linecap="round" stroke-width="3" stroke="#323232" fill="none" ry="27.5" rx="15" cy="50" cx="50" style="stroke:rgb(50, 50, 50);animation-play-state:paused" ></ellipse>
<path d="M50 22.5v55" stroke-miterlimit="10" stroke-linejoin="round" stroke-linecap="round" stroke-width="3" stroke="#323232" fill="none" style="stroke:rgb(50, 50, 50);animation-play-state:paused" ></path>
<path d="M24.365 40.046h51.321" stroke-miterlimit="10" stroke-linejoin="round" stroke-linecap="round" stroke-width="3" stroke="#323232" fill="none" style="stroke:rgb(50, 50, 50);animation-play-state:paused" ></path>
<path d="M24.365 59.454h51.321" stroke-miterlimit="10" stroke-linejoin="round" stroke-linecap="round" stroke-width="3" stroke="#323232" fill="none" style="stroke:rgb(50, 50, 50);animation-play-state:paused" ></path>
<path stroke-miterlimit="10" stroke-linejoin="round" stroke-linecap="round" stroke-width="3" stroke="#000" opacity=".1" d="M68.476 29.631c.076 1.018.125 2.044.125 3.084 0 20.731-15.357 37.536-34.3 37.536a31.7 31.7 0 0 1-3.065-.157C36.149 74.685 42.744 77.5 50 77.5c15.188 0 27.5-12.312 27.5-27.5 0-8.076-3.481-15.338-9.024-20.369z" style="animation-play-state:paused" ></path></g>
<metadata xmlns:d="https://loading.io/stock/" style="animation-play-state:paused" ><d:name style="animation-play-state:paused" >language</d:name>


<d:tags style="animation-play-state:paused" >language,international,foreign,global,relocate,transfer,move,rotate,spin</d:tags>


<d:license style="animation-play-state:paused" >by</d:license>


<d:slug style="animation-play-state:paused" >b0fera</d:slug></metadata></g><!-- generated by https://loading.io/ --></svg>