<?xml version="1.0" encoding="utf-8"?><svg xml:space="preserve" viewBox="0 0 100 100" y="0" x="0" xmlns="http://www.w3.org/2000/svg" id="圖層_1" version="1.1" width="200px" height="200px" xmlns:xlink="http://www.w3.org/1999/xlink" style="width:100%;height:100%;background-size:initial;background-repeat-y:initial;background-repeat-x:initial;background-position-y:initial;background-position-x:initial;background-origin:initial;background-image:initial;background-clip:initial;background-attachment:initial;animation-play-state:paused" ><g class="ldl-scale" style="transform-origin:50% 50%;transform:rotate(0deg) scale(0.8, 0.8);animation-play-state:paused" ><path fill="#f5e6c8" d="M24.2 53.9c5.9-.7 15.4 2.3 18.4 3.1s12 6.2 13.7 7c1.7.9 4.6.9 5.7.8 1.1-.1 2.2-.4 3.9-.5.7 1.5-.3 4.6-1.7 5.7-1.4 1.2-4.2 1.6-5.5 1.7-2 .2-4.5-.1-5.9-.4-1.8-.3-4.4-1.2-5.1-1-.7.2-1 .8-.2 1.5s4.3 5 6.1 6c2 1.2 6.8 1.3 9.6.8.9-.2 2.1-.4 3.3-.6.9-1.2 2.6-3.5 3.4-4.2 1-1 3.8-3 4.9-3.4 1.1-.4 2.4-.6 4 .8-.6 1.1-2.3 3.1-3.8 4.8 1.6-.2 3.5-.3 4.5-.1 1.5.3 3.2 1.2 3.2 1.2s.9.7 1.8 1.7c.7.8.3 2-.6 2.3-5.6 1.7-19.4 6-23.7 6.5-4.8.6-7.8.5-10.7-.3s-22.8-15-22.8-15-2.3-1.8-4.2-2c-2.1 0-12.5 3.4-12.5 3.4L11.2 57s7-2.4 13-3.1z" style="fill:rgb(228, 147, 75);animation-play-state:paused" ></path>
<path fill="#77a4bd" d="M68.2 46.2c-4.7 4.7-10.5 4.9-13.9 1.5-3.4-3.4-3.2-9.2 1.5-13.9l9.1-8.9 12.3 12.3-9 9z" style="fill:rgb(226, 187, 139);animation-play-state:paused" ></path>
<path fill="#e0e0e0" d="M87.7 14.3c3.4 3.4 3.2 9.2-1.5 13.9l-9.1 8.9-12.2-12.2 8.9-9.1c4.6-4.7 10.5-4.9 13.9-1.5z" style="fill:rgb(223, 19, 23);animation-play-state:paused" ></path>
<metadata xmlns:d="https://loading.io/stock/" style="animation-play-state:paused" ><d:name style="animation-play-state:paused" >treatment</d:name>
<d:tags style="animation-play-state:paused" >treatment,cure,heal,remedy,prescription</d:tags>
<d:license style="animation-play-state:paused" >by</d:license>
<d:slug style="animation-play-state:paused" >v7kvui</d:slug></metadata></g><!-- generated by https://loading.io/ --></svg>
